PathFileType	4	(X/Y/Z)	C:\MyCloud\GitHub\OpenSimScripting\Matlab\Data\Gait2354_Simbody\Static_Marker.trc	
DataRate	CameraRate	NumFrames	NumMarkers	Units	OrigDataRate	OrigDataStartFrame	OrigNumFrames
100	100	8	33	mm	100	51	100
Frame#	Time	C7			CLAV			STRN			LSHO			RSHO			LASIS			RLSIS			LPSIS			RPSIS			LGTF			LLCF			LMCF			LAF			RGTF			RLCF			RMCF			RAF			RFH			RANK			RMANK			RATT			LFH			LANK			LMANK			LATT			LHEE			L5MT			LTOE			L1MT			RHEE			R5MT			RTOE			R1MT			
		X1	Y1	Z1	X2	Y2	Z2	X3	Y3	Z3	X4	Y4	Z4	X5	Y5	Z5	X6	Y6	Z6	X7	Y7	Z7	X8	Y8	Z8	X9	Y9	Z9	X10	Y10	Z10	X11	Y11	Z11	X12	Y12	Z12	X13	Y13	Z13	X14	Y14	Z14	X15	Y15	Z15	X16	Y16	Z16	X17	Y17	Z17	X18	Y18	Z18	X19	Y19	Z19	X20	Y20	Z20	X21	Y21	Z21	X22	Y22	Z22	X23	Y23	Z23	X24	Y24	Z24	X25	Y25	Z25	X26	Y26	Z26	X27	Y27	Z27	X28	Y28	Z28	X29	Y29	Z29	X30	Y30	Z30	X31	Y31	Z31	X32	Y32	Z32	X33	Y33	Z33	

51	0.51000	371.41431	1587.02747	-41.75646	527.83765	1497.14563	-27.57075	556.18292	1436.71790	-34.96834	430.32175	1561.38184	-146.14551	418.13171	1560.38818	73.76176	505.58221	990.25415	-181.15413	503.47849	997.37830	115.40211	299.56885	1023.65405	-74.91692	305.24088	1024.41394	-9.20420	392.07944	881.46417	-214.44913	460.01645	517.80164	-219.90141	448.77454	516.12494	-92.02305	532.58557	799.03107	-201.13496	438.19449	879.52856	148.98297	478.55869	514.96619	148.31215	443.36710	496.77780	22.66912	540.44073	618.91138	96.99367	452.15128	455.23636	169.35834	386.44095	48.46806	143.96275	403.18304	75.18234	47.75502	496.75702	424.95361	118.30533	432.16864	471.52893	-233.57211	384.17322	54.35319	-200.87656	402.52451	78.68676	-106.40099	479.42493	428.39563	-192.30177	336.16345	67.16233	-153.25435	502.19083	9.45265	-229.79645	589.26605	30.48698	-145.37782	531.08160	22.76104	-106.09013	332.75876	72.13264	101.43326	496.00647	19.29497	174.19292	583.35345	27.77735	100.62733	527.06812	22.78221	54.87544	
52	0.52000	371.43668	1587.00964	-41.74295	527.83875	1497.17737	-27.58105	556.18317	1436.73401	-34.99242	430.29239	1561.38904	-146.16356	418.14883	1560.43579	73.74563	505.55746	990.25720	-181.14276	503.50043	997.39197	115.41081	299.58276	1023.64447	-74.94762	305.26425	1024.40125	-9.22437	392.04373	881.44916	-214.41940	460.01929	517.76501	-219.88142	448.78592	516.13843	-92.03265	532.52130	799.04724	-201.12357	438.19885	879.55255	149.00786	478.55576	514.98279	148.30708	443.39459	496.82349	22.66889	540.45886	618.96637	97.03385	452.14819	455.30643	169.36867	386.40787	48.46706	143.95299	403.21124	75.19491	47.70530	496.74762	425.02930	118.35421	432.43176	471.84415	-233.40950	384.14328	54.39472	-200.91115	402.44464	78.69843	-106.42387	479.42773	428.40399	-192.30281	336.15253	67.14537	-153.24976	502.14590	9.46623	-229.79997	589.26660	30.50410	-145.38326	531.04004	22.79935	-106.05502	332.74039	72.14835	101.42178	495.98608	19.34214	174.22075	583.31927	27.80730	100.61649	527.07306	22.72606	54.86336	
53	0.53000	371.45377	1586.95288	-41.71834	527.84753	1497.14795	-27.59397	556.20300	1436.71045	-34.99563	430.26724	1561.30200	-146.12148	418.12225	1560.35193	73.75374	505.57443	990.25012	-181.17679	503.50613	997.35059	115.42965	299.58615	1023.58875	-74.85860	305.26984	1024.35510	-9.16421	392.05057	881.40576	-214.38811	460.02960	517.78235	-219.90558	448.76675	516.07465	-92.01458	532.54657	799.01117	-201.10115	438.21893	879.49872	149.00444	478.55939	514.93250	148.32567	443.22748	496.75436	22.62458	540.44250	618.85828	97.00384	452.13867	455.24503	169.36871	386.41589	48.39645	143.95891	403.17926	75.09731	47.75842	496.76138	424.92163	118.31295	432.20822	471.49646	-233.54776	384.15408	54.30356	-200.83745	402.43814	78.58591	-106.37229	479.43100	428.37112	-192.31494	336.16800	67.10987	-153.19028	502.15433	9.48315	-229.87682	589.28650	30.45734	-145.35251	531.06799	22.74981	-106.09354	332.75482	72.07518	101.45664	495.98386	19.25813	174.19031	583.34534	27.76163	100.62402	527.09460	22.54603	54.81176	
54	0.54000	371.48062	1587.01599	-41.69291	527.84802	1497.17297	-27.59292	556.20642	1436.70544	-34.99089	430.31287	1561.34229	-146.13017	418.15698	1560.37500	73.75708	505.64151	990.23608	-181.16202	503.55533	997.32947	115.45506	299.59167	1023.64679	-74.86573	305.28046	1024.42517	-9.14755	392.02414	881.40814	-214.37778	460.03638	517.78076	-219.89314	448.78247	516.05029	-91.96842	532.55914	798.99799	-201.04321	438.24216	879.49353	149.01953	478.57159	514.94067	148.33829	443.39651	496.78781	22.68955	540.48236	618.86450	97.03661	452.16553	455.22659	169.40575	386.44638	48.43781	143.98697	403.20099	75.09470	47.77278	496.80582	424.90912	118.32256	432.47354	471.77298	-233.38545	384.19321	54.34060	-200.84518	402.50504	78.63912	-106.36513	479.43610	428.36142	-192.28659	336.16696	67.11078	-153.22389	502.19427	9.45106	-229.79730	589.27271	30.47430	-145.36615	531.08270	22.72563	-106.08957	332.76569	72.12724	101.46076	496.01324	19.28707	174.21182	583.35022	27.72710	100.60545	527.10333	22.65195	54.83358	
55	0.55000	371.47672	1587.02271	-41.69740	527.84918	1497.16943	-27.59348	556.17560	1436.74768	-35.00261	430.29803	1561.43469	-146.17252	418.12445	1560.38733	73.75273	505.61761	990.23547	-181.12727	503.55615	997.36615	115.46512	299.58594	1023.71356	-74.90643	305.27557	1024.46216	-9.14863	392.02896	881.46954	-214.36253	460.01343	517.83130	-219.88347	448.80737	516.14661	-91.97984	532.53424	799.00671	-201.01845	438.25665	879.52954	149.04927	478.58035	514.94373	148.34210	443.46057	496.84445	22.67911	540.46771	618.86914	97.06028	452.14868	455.29379	169.38516	386.41202	48.45807	143.95187	403.19351	75.24119	47.69675	496.78848	424.92361	118.36063	432.48264	471.82489	-233.36682	384.14810	54.44486	-200.89333	402.48633	78.67307	-106.41914	479.44669	428.40201	-192.25734	336.14438	67.16974	-153.22662	502.15192	9.52397	-229.80132	589.25275	30.51107	-145.34781	531.05872	22.74932	-106.07766	332.74875	72.13501	101.41516	495.99078	19.32223	174.23143	583.37494	27.78511	100.60049	527.07269	22.72645	54.87851	
56	0.56000	371.50577	1586.95654	-41.69014	527.83997	1497.17126	-27.60072	556.19000	1436.77209	-35.04500	430.23013	1561.34302	-146.15738	418.11682	1560.35413	73.74393	505.59955	990.24939	-181.15236	503.57031	997.35504	115.46246	299.62006	1023.61993	-74.83596	305.31119	1024.37988	-9.12030	392.05692	881.41071	-214.33493	460.04974	517.80127	-219.89467	448.80188	516.10223	-91.98166	532.53638	798.99762	-201.01953	438.25299	879.51355	149.03981	478.59656	514.94128	148.35117	443.35123	496.79648	22.68763	540.49298	618.89526	97.07262	452.16687	455.27621	169.40100	386.41959	48.40423	143.97473	403.18558	75.12143	47.75194	496.81131	424.89813	118.34175	432.24326	471.52100	-233.52876	384.17474	54.32178	-200.85777	402.46228	78.58086	-106.40646	479.48459	428.39258	-192.28015	336.14273	67.14037	-153.20900	502.15814	9.51178	-229.85152	589.25720	30.50168	-145.39417	531.05872	22.78537	-106.09439	332.75595	72.10590	101.47041	495.98505	19.28289	174.21529	583.30139	27.70881	100.61111	527.08685	22.57431	54.83792	
57	0.57000	371.49643	1587.00439	-41.65897	527.86237	1497.13965	-27.61498	556.19165	1436.73438	-35.05538	430.26071	1561.31250	-146.12404	418.16174	1560.33948	73.79691	505.64059	990.17853	-181.10689	503.60233	997.27167	115.50532	299.64871	1023.60938	-74.81231	305.33881	1024.39014	-9.11280	392.12003	881.42987	-214.32646	460.12723	517.73352	-219.85490	448.81622	516.01532	-91.94695	532.58057	798.94623	-201.00357	438.29388	879.47870	149.06561	478.64767	514.90253	148.36069	443.37848	496.70200	22.69274	540.51190	618.87231	97.07850	452.18988	455.19025	169.42773	386.42685	48.39636	144.00609	403.21808	75.03679	47.79263	496.83276	424.87289	118.35423	432.30496	471.47485	-233.49713	384.20053	54.27144	-200.81105	402.51251	78.58924	-106.32220	479.51312	428.34155	-192.28355	336.17477	67.07562	-153.19493	502.19675	9.44966	-229.79918	589.26947	30.44878	-145.33472	531.08307	22.67945	-106.11770	332.77472	72.07030	101.46322	495.97672	19.26788	174.23607	583.35730	27.71663	100.63280	527.11749	22.56438	54.83941	
58	0.58000	371.49725	1587.03857	-41.64185	527.81775	1497.16992	-27.63266	556.19562	1436.76477	-35.06010	430.23123	1561.43689	-146.16756	418.17493	1560.35425	73.77612	505.68158	990.21216	-181.11916	503.60565	997.35205	115.53156	299.64294	1023.72211	-74.84077	305.32791	1024.46387	-9.10797	392.11139	881.51154	-214.32843	460.09061	517.82269	-219.83478	448.86377	516.10736	-91.94263	532.59802	798.99963	-200.95062	438.29254	879.51532	149.07048	478.65421	514.91931	148.33199	443.45578	496.85281	22.73501	540.48975	618.88617	97.07546	452.19553	455.26797	169.41330	386.43210	48.45486	143.96736	403.21844	75.21059	47.72909	496.80859	424.91714	118.36337	432.54193	471.81079	-233.33223	384.21698	54.37449	-200.87895	402.51804	78.62028	-106.44382	479.53574	428.38379	-192.24409	336.16122	67.12383	-153.24432	502.17575	9.47849	-229.79764	589.25787	30.52039	-145.36272	531.08008	22.71462	-106.07879	332.76633	72.12885	101.43289	495.98413	19.32359	174.23610	583.35938	27.74430	100.59814	527.09595	22.74311	54.88289	
